<svg xmlns="http://www.w3.org/2000/svg" xmlns:xlink="http://www.w3.org/1999/xlink" width="578" height="222" viewBox="0 0 578 222" fill="none">
<path     fill="url(#pattern_fill_2_1_0)"  d="M0 222L578 222L578 0L0 0L0 222Z">
</path>
<g  clip-path="url(#clip-path-2_2)">
<g opacity="0.982">
<path d="M88.9513 -0.353577C95.3303 -0.353577 101.713 -0.353577 108.092 -0.353577C148.277 5.20161 176.272 26.6516 192.08 63.9964C196.662 76.575 198.546 89.544 197.744 102.893C193.525 118.147 183.485 124.857 167.622 123.04C157.876 120.623 151.614 114.616 148.838 105.012C149.427 80.8285 138.917 63.5035 117.301 53.0371C95.5201 45.5961 76.7428 50.1939 60.9585 66.8278C45.3655 88.0421 45.3655 109.251 60.9585 130.465C72.7029 142.941 87.2316 148.957 104.547 148.503C121.635 154.909 127.185 166.811 121.202 184.212C117.322 191.279 111.531 195.755 103.834 197.646C99.1086 197.646 94.3896 197.646 89.6643 197.646C56.3165 193.447 30.6759 177.178 12.7558 148.849C6.02402 136.83 1.65536 124.103 -0.354401 110.665C-0.354401 102.651 -0.354401 94.6418 -0.354401 86.6278C6.85862 43.95 31.1967 16.0108 72.6527 2.82432C78.1549 1.59793 83.5852 0.54146 88.9513 -0.353577Z"   fill="#4286F5" >
</path>
</g>
<path d="M179.693 129.923C178.502 129.886 177.294 130.002 176.155 130.202C175.09 130.41 174.004 130.842 173.058 131.37C171.564 132.155 170.21 133.109 168.909 134.221C167.046 135.744 165.234 137.505 163.504 139.195C161.102 141.671 158.773 144.158 156.37 146.634C154.131 148.971 151.826 151.145 149.453 153.315C146.999 155.555 144.463 157.866 142.001 160.182C140.197 161.866 138.46 163.627 136.93 165.568C135.918 166.786 135.038 168.172 134.3 169.648C133.827 170.685 133.421 171.805 133.237 172.947C133.074 173.859 132.986 174.778 132.972 175.705C132.965 177.328 133.188 178.893 134.017 180.364C134.727 181.514 135.769 182.386 137.064 182.897C137.641 183.106 138.217 183.32 138.883 183.383L140.068 183.497L140.882 183.498C142.006 183.451 143.137 183.322 144.283 183.045C146.347 182.546 148.354 181.894 150.306 180.998C152.96 179.783 155.482 178.4 157.877 176.773C160.191 175.216 162.442 173.577 164.557 171.769C167.965 168.925 171.248 165.756 174.182 162.403L174.355 162.191C177.12 159.054 179.62 155.58 181.837 151.926C183.256 149.588 184.465 147.076 185.462 144.465C185.876 143.268 186.296 141.992 186.562 140.781C186.592 140.474 186.697 140.173 186.733 139.79L186.888 138.181C186.917 137.875 186.871 137.559 186.908 137.176C186.841 135.546 186.54 134.056 185.622 132.731C184.904 131.657 183.929 130.941 182.849 130.529C181.842 130.123 180.81 129.952 179.693 129.923Z"   fill="#F6473E" >
</path>
</g>
<path d="M135.242 143.259L109.917 143.259C109.813 143.259 109.71 143.256 109.606 143.251C109.503 143.246 109.399 143.238 109.296 143.229C109.193 143.218 109.09 143.206 108.988 143.19C108.885 143.175 108.783 143.158 108.682 143.137C108.58 143.117 108.479 143.095 108.378 143.069C108.278 143.044 108.178 143.017 108.079 142.987C107.98 142.957 107.881 142.925 107.784 142.89C107.686 142.855 107.59 142.817 107.494 142.778C107.398 142.738 107.303 142.696 107.21 142.652C107.116 142.608 107.024 142.562 106.932 142.513C106.841 142.464 106.751 142.413 106.662 142.36C106.573 142.307 106.485 142.252 106.399 142.194C106.313 142.137 106.228 142.077 106.145 142.016C106.062 141.954 105.98 141.891 105.9 141.825C105.82 141.76 105.742 141.692 105.665 141.623C105.588 141.553 105.513 141.482 105.44 141.409C105.367 141.336 105.295 141.261 105.226 141.184C105.156 141.108 105.088 141.03 105.023 140.95C104.957 140.87 104.893 140.788 104.831 140.705C104.77 140.622 104.71 140.538 104.652 140.452C104.595 140.366 104.54 140.279 104.486 140.19C104.433 140.101 104.382 140.012 104.333 139.92C104.284 139.829 104.238 139.737 104.193 139.643C104.149 139.55 104.107 139.456 104.067 139.36C104.028 139.265 103.99 139.168 103.956 139.071C103.921 138.974 103.888 138.875 103.858 138.777C103.828 138.678 103.8 138.578 103.775 138.478C103.75 138.378 103.727 138.277 103.707 138.175C103.687 138.074 103.669 137.972 103.654 137.87C103.639 137.768 103.626 137.665 103.616 137.562C103.606 137.459 103.598 137.356 103.593 137.253C103.588 137.15 103.585 137.047 103.585 136.943L103.585 122.207C103.585 122.104 103.588 122.001 103.593 121.897C103.598 121.794 103.606 121.691 103.616 121.588C103.626 121.485 103.639 121.383 103.654 121.281C103.669 121.178 103.687 121.077 103.707 120.975C103.727 120.874 103.75 120.773 103.775 120.673C103.8 120.572 103.828 120.473 103.858 120.374C103.888 120.275 103.921 120.177 103.956 120.08C103.99 119.982 104.028 119.886 104.067 119.79C104.107 119.695 104.149 119.601 104.193 119.507C104.238 119.414 104.284 119.321 104.333 119.23C104.382 119.139 104.433 119.049 104.486 118.96C104.54 118.872 104.595 118.785 104.652 118.699C104.71 118.613 104.77 118.528 104.831 118.445C104.893 118.362 104.957 118.281 105.023 118.201C105.088 118.121 105.156 118.043 105.226 117.966C105.295 117.89 105.367 117.815 105.44 117.742C105.513 117.669 105.588 117.597 105.665 117.528C105.742 117.458 105.82 117.391 105.9 117.325C105.98 117.26 106.062 117.196 106.145 117.135C106.228 117.073 106.313 117.014 106.399 116.956C106.485 116.899 106.573 116.844 106.662 116.79C106.751 116.737 106.841 116.686 106.932 116.638C107.024 116.589 107.116 116.542 107.21 116.498C107.303 116.454 107.398 116.412 107.494 116.373C107.59 116.333 107.686 116.296 107.784 116.261C107.881 116.226 107.98 116.194 108.079 116.164C108.178 116.134 108.278 116.106 108.378 116.081C108.479 116.056 108.58 116.033 108.682 116.013C108.783 115.993 108.885 115.975 108.988 115.96C109.09 115.945 109.193 115.932 109.296 115.922C109.399 115.912 109.503 115.905 109.606 115.899C109.71 115.894 109.813 115.892 109.917 115.892L126.8 115.892C126.835 115.892 126.869 115.891 126.904 115.889C126.938 115.888 126.973 115.885 127.007 115.882C127.041 115.878 127.076 115.874 127.11 115.869C127.144 115.864 127.178 115.858 127.212 115.851C127.246 115.845 127.28 115.837 127.313 115.829C127.347 115.82 127.38 115.811 127.413 115.801C127.446 115.791 127.479 115.78 127.511 115.769C127.544 115.757 127.576 115.745 127.608 115.732C127.64 115.718 127.671 115.704 127.703 115.69C127.734 115.675 127.765 115.659 127.795 115.643C127.826 115.627 127.856 115.61 127.885 115.592C127.915 115.575 127.944 115.556 127.973 115.537C128.001 115.518 128.03 115.498 128.057 115.478C128.085 115.457 128.112 115.436 128.139 115.414C128.166 115.392 128.192 115.37 128.217 115.346C128.243 115.323 128.268 115.3 128.293 115.275C128.317 115.251 128.341 115.226 128.364 115.2C128.387 115.175 128.41 115.149 128.432 115.122C128.454 115.096 128.475 115.068 128.495 115.041C128.516 115.013 128.536 114.985 128.555 114.956C128.574 114.928 128.593 114.898 128.61 114.869C128.628 114.839 128.645 114.809 128.661 114.779C128.678 114.749 128.693 114.718 128.708 114.687C128.723 114.656 128.737 114.624 128.75 114.592C128.763 114.561 128.776 114.528 128.787 114.496C128.799 114.463 128.81 114.431 128.82 114.398C128.83 114.365 128.839 114.332 128.847 114.298C128.856 114.265 128.863 114.231 128.87 114.197C128.877 114.164 128.883 114.13 128.888 114.096C128.893 114.062 128.897 114.027 128.9 113.993C128.904 113.959 128.906 113.924 128.908 113.89C128.91 113.856 128.911 113.821 128.911 113.787L128.911 109.934C128.913 109.834 128.913 109.734 128.911 109.634C128.909 109.534 128.905 109.435 128.898 109.335C128.892 109.235 128.883 109.135 128.872 109.036C128.86 108.937 128.847 108.838 128.831 108.739C128.815 108.64 128.797 108.542 128.777 108.444C128.757 108.346 128.735 108.249 128.71 108.152C128.685 108.055 128.658 107.958 128.629 107.863C128.6 107.767 128.569 107.672 128.535 107.578C128.502 107.484 128.466 107.39 128.429 107.298C128.391 107.205 128.351 107.113 128.309 107.022C128.267 106.932 128.223 106.842 128.177 106.753C128.131 106.664 128.083 106.576 128.033 106.49C127.983 106.403 127.931 106.318 127.877 106.233C127.823 106.149 127.767 106.066 127.709 105.984C127.652 105.903 127.592 105.822 127.531 105.743C127.469 105.664 127.406 105.587 127.341 105.511C127.276 105.435 127.209 105.36 127.141 105.287C127.072 105.214 127.002 105.142 126.931 105.072C126.859 105.003 126.786 104.934 126.711 104.868C126.636 104.801 126.56 104.736 126.482 104.673C126.404 104.61 126.325 104.549 126.244 104.49C126.164 104.43 126.082 104.372 125.999 104.317C125.916 104.261 125.831 104.207 125.745 104.155C125.66 104.103 125.573 104.053 125.485 104.006C125.397 103.958 125.308 103.912 125.218 103.868C125.128 103.824 125.037 103.782 124.945 103.742C124.853 103.703 124.76 103.665 124.666 103.629C124.573 103.594 124.478 103.561 124.383 103.529C124.288 103.498 124.192 103.469 124.095 103.442C123.999 103.416 123.902 103.391 123.804 103.369C123.706 103.346 123.608 103.326 123.509 103.308C123.411 103.29 123.312 103.274 123.212 103.261C123.102 103.25 122.992 103.242 122.882 103.237C122.771 103.231 122.661 103.229 122.55 103.229C122.44 103.23 122.329 103.233 122.219 103.24C122.109 103.246 121.998 103.255 121.889 103.267C121.779 103.279 121.669 103.294 121.56 103.312C121.451 103.329 121.342 103.35 121.234 103.373C121.126 103.397 121.019 103.423 120.912 103.452C120.806 103.481 120.7 103.513 120.595 103.548C120.49 103.582 120.386 103.619 120.283 103.659C120.18 103.699 120.078 103.742 119.977 103.787C119.876 103.833 119.777 103.881 119.678 103.931C119.58 103.982 119.483 104.035 119.388 104.09C119.292 104.146 119.198 104.204 119.106 104.265C119.014 104.325 118.923 104.388 118.834 104.453C118.744 104.518 118.657 104.586 118.571 104.656C118.486 104.726 118.402 104.798 118.32 104.872C118.239 104.946 118.159 105.022 118.081 105.1C118.003 105.179 117.927 105.259 117.854 105.341C117.78 105.424 117.709 105.508 117.64 105.594C117.571 105.68 117.504 105.768 117.439 105.857C117.375 105.947 117.312 106.038 117.253 106.131C117.193 106.224 117.136 106.318 117.081 106.414C117.026 106.509 116.974 106.607 116.924 106.705C116.874 106.804 116.827 106.903 116.783 107.004C116.738 107.105 116.697 107.207 116.657 107.31C116.618 107.414 116.582 107.518 116.548 107.623C116.515 107.728 116.484 107.834 116.456 107.94C116.428 108.047 116.402 108.154 116.38 108.262C116.357 108.37 116.338 108.479 116.321 108.588C116.304 108.697 116.29 108.806 116.279 108.916C116.268 109.026 116.26 109.136 116.255 109.246C116.25 109.356 116.247 109.466 116.248 109.576C116.248 109.611 116.247 109.645 116.245 109.68C116.244 109.714 116.241 109.748 116.238 109.783C116.234 109.817 116.23 109.851 116.225 109.885C116.22 109.919 116.214 109.953 116.208 109.987C116.201 110.021 116.193 110.054 116.185 110.088C116.176 110.121 116.167 110.155 116.157 110.187C116.147 110.22 116.136 110.253 116.125 110.286C116.113 110.318 116.101 110.35 116.087 110.382C116.074 110.414 116.06 110.445 116.045 110.476C116.031 110.508 116.015 110.538 115.999 110.569C115.983 110.599 115.966 110.629 115.948 110.659C115.93 110.688 115.912 110.717 115.892 110.746C115.873 110.775 115.853 110.803 115.833 110.83C115.812 110.858 115.791 110.885 115.769 110.912C115.747 110.939 115.725 110.965 115.701 110.99C115.678 111.016 115.654 111.041 115.63 111.065C115.606 111.089 115.581 111.113 115.555 111.136C115.529 111.159 115.503 111.182 115.476 111.204C115.45 111.226 115.423 111.247 115.395 111.267C115.367 111.288 115.339 111.308 115.31 111.327C115.281 111.346 115.252 111.364 115.223 111.382C115.193 111.4 115.163 111.417 115.132 111.433C115.102 111.449 115.071 111.465 115.04 111.479C115.009 111.494 114.977 111.508 114.945 111.521C114.913 111.535 114.881 111.547 114.849 111.558C114.816 111.57 114.783 111.581 114.75 111.591C114.717 111.601 114.684 111.61 114.65 111.618C114.617 111.627 114.583 111.634 114.549 111.641C114.515 111.648 114.481 111.654 114.447 111.659C114.413 111.664 114.379 111.668 114.344 111.671C114.31 111.675 114.276 111.677 114.241 111.679C114.207 111.681 114.172 111.682 114.138 111.682C114.103 111.682 114.069 111.681 114.034 111.679C114 111.677 113.965 111.675 113.931 111.671C113.896 111.668 113.862 111.664 113.828 111.659C113.794 111.654 113.76 111.648 113.726 111.641C113.692 111.634 113.658 111.627 113.625 111.618C113.591 111.61 113.558 111.601 113.525 111.591C113.492 111.581 113.459 111.57 113.427 111.558C113.394 111.547 113.362 111.535 113.33 111.521C113.298 111.508 113.267 111.494 113.235 111.479C113.204 111.465 113.173 111.449 113.143 111.433C113.112 111.417 113.082 111.4 113.053 111.382C113.023 111.364 112.994 111.346 112.965 111.327C112.936 111.308 112.908 111.288 112.88 111.267C112.853 111.247 112.825 111.226 112.799 111.204C112.772 111.182 112.746 111.159 112.72 111.136C112.695 111.113 112.67 111.089 112.645 111.065C112.621 111.041 112.597 111.016 112.574 110.99C112.551 110.965 112.528 110.939 112.506 110.912C112.484 110.885 112.463 110.858 112.443 110.83C112.422 110.803 112.402 110.775 112.383 110.746C112.364 110.717 112.345 110.688 112.327 110.659C112.31 110.629 112.293 110.599 112.276 110.569C112.26 110.538 112.245 110.508 112.23 110.476C112.215 110.445 112.201 110.414 112.188 110.382C112.175 110.35 112.162 110.318 112.151 110.286C112.139 110.253 112.128 110.22 112.118 110.187C112.108 110.155 112.099 110.121 112.09 110.088C112.082 110.054 112.074 110.021 112.068 109.987C112.061 109.953 112.055 109.919 112.05 109.885C112.045 109.851 112.041 109.817 112.037 109.783C112.034 109.748 112.031 109.714 112.03 109.68C112.028 109.645 112.027 109.611 112.027 109.576C112.026 109.393 112.03 109.209 112.039 109.026C112.048 108.843 112.061 108.66 112.08 108.477C112.098 108.294 112.121 108.112 112.149 107.931C112.177 107.749 112.209 107.569 112.247 107.389C112.284 107.209 112.326 107.031 112.373 106.853C112.42 106.676 112.471 106.499 112.527 106.325C112.583 106.15 112.643 105.976 112.708 105.805C112.773 105.633 112.843 105.463 112.917 105.295C112.991 105.127 113.069 104.961 113.152 104.797C113.235 104.633 113.322 104.471 113.413 104.312C113.504 104.152 113.599 103.995 113.698 103.841C113.798 103.686 113.901 103.535 114.009 103.385C114.116 103.236 114.227 103.09 114.342 102.947C114.457 102.804 114.576 102.663 114.698 102.526C114.821 102.389 114.946 102.255 115.076 102.125C115.205 101.994 115.338 101.867 115.474 101.744C115.61 101.62 115.749 101.5 115.892 101.384C116.034 101.268 116.179 101.155 116.327 101.046C116.476 100.937 116.627 100.833 116.78 100.732C116.934 100.631 117.091 100.534 117.249 100.441C117.408 100.349 117.569 100.26 117.733 100.176C117.896 100.092 118.062 100.012 118.229 99.9359C118.397 99.8602 118.567 99.789 118.738 99.7222C118.909 99.6553 119.082 99.593 119.257 99.5352C119.432 99.4775 119.608 99.4243 119.785 99.3757C119.963 99.3271 120.141 99.2831 120.321 99.2438C120.501 99.2046 120.682 99.17 120.863 99.1401C121.045 99.1103 121.227 99.0852 121.41 99.0648C121.593 99.0445 121.776 99.0289 121.96 99.0182C122.143 99.0074 122.327 99.0014 122.511 99.0002C122.695 98.999 122.879 99.0027 123.063 99.0111C123.247 99.0195 123.43 99.0327 123.613 99.0507C123.777 99.0706 123.941 99.0942 124.104 99.1216C124.267 99.1489 124.429 99.18 124.591 99.2148C124.752 99.2496 124.913 99.288 125.072 99.3301C125.232 99.3722 125.391 99.418 125.549 99.4673C125.706 99.5167 125.863 99.5696 126.018 99.6261C126.173 99.6826 126.327 99.7426 126.479 99.8062C126.632 99.8697 126.783 99.9367 126.932 100.007C127.082 100.078 127.229 100.151 127.375 100.228C127.521 100.306 127.665 100.386 127.808 100.47C127.95 100.554 128.09 100.641 128.229 100.731C128.367 100.821 128.503 100.914 128.637 101.011C128.771 101.107 128.903 101.206 129.032 101.309C129.162 101.411 129.289 101.516 129.414 101.625C129.538 101.733 129.66 101.844 129.78 101.958C129.899 102.071 130.016 102.188 130.131 102.307C130.245 102.426 130.356 102.548 130.465 102.672C130.573 102.796 130.679 102.923 130.782 103.052C130.885 103.181 130.984 103.312 131.081 103.446C131.178 103.579 131.272 103.715 131.362 103.853C131.453 103.991 131.54 104.131 131.624 104.272C131.708 104.414 131.789 104.558 131.867 104.704C131.944 104.849 132.018 104.996 132.089 105.145C132.16 105.294 132.227 105.445 132.291 105.597C132.355 105.749 132.415 105.902 132.472 106.057C132.529 106.212 132.582 106.368 132.632 106.525C132.682 106.682 132.728 106.84 132.77 106.999C132.813 107.159 132.851 107.319 132.886 107.48C132.921 107.641 132.953 107.803 132.98 107.965C133.008 108.128 133.032 108.291 133.052 108.454C133.072 108.618 133.089 108.782 133.101 108.946C133.114 109.111 133.123 109.275 133.128 109.44C133.133 109.605 133.134 109.769 133.132 109.934L133.132 113.787C133.132 113.89 133.129 113.993 133.124 114.097C133.119 114.2 133.111 114.303 133.101 114.406C133.091 114.509 133.078 114.611 133.063 114.713C133.048 114.816 133.03 114.917 133.01 115.019C132.99 115.12 132.967 115.221 132.942 115.321C132.917 115.421 132.889 115.521 132.859 115.62C132.829 115.719 132.796 115.817 132.761 115.914C132.726 116.012 132.689 116.108 132.65 116.203C132.61 116.299 132.568 116.393 132.524 116.487C132.479 116.58 132.433 116.673 132.384 116.764C132.335 116.855 132.284 116.945 132.231 117.033C132.178 117.122 132.122 117.209 132.064 117.295C132.007 117.381 131.947 117.466 131.886 117.549C131.824 117.632 131.76 117.713 131.694 117.793C131.629 117.873 131.561 117.951 131.491 118.028C131.422 118.104 131.35 118.179 131.277 118.252C131.204 118.325 131.129 118.397 131.052 118.466C130.975 118.536 130.897 118.603 130.817 118.669C130.737 118.734 130.655 118.798 130.572 118.859C130.489 118.921 130.404 118.98 130.318 119.038C130.232 119.095 130.144 119.15 130.055 119.204C129.966 119.257 129.876 119.308 129.785 119.356C129.693 119.405 129.601 119.452 129.507 119.496C129.414 119.54 129.319 119.582 129.223 119.621C129.127 119.661 129.031 119.698 128.933 119.733C128.836 119.768 128.737 119.8 128.638 119.83C128.539 119.86 128.439 119.888 128.339 119.913C128.238 119.938 128.137 119.961 128.035 119.981C127.934 120.001 127.832 120.019 127.729 120.034C127.627 120.049 127.524 120.062 127.421 120.072C127.318 120.082 127.214 120.089 127.111 120.095C127.007 120.1 126.904 120.102 126.8 120.102L109.917 120.102C109.882 120.102 109.848 120.103 109.813 120.105C109.779 120.106 109.744 120.109 109.71 120.112C109.676 120.116 109.641 120.12 109.607 120.125C109.573 120.13 109.539 120.136 109.505 120.143C109.471 120.149 109.437 120.157 109.404 120.165C109.37 120.174 109.337 120.183 109.304 120.193C109.271 120.203 109.238 120.214 109.206 120.225C109.173 120.237 109.141 120.249 109.109 120.262C109.077 120.276 109.046 120.29 109.014 120.304C108.983 120.319 108.952 120.334 108.922 120.351C108.891 120.367 108.861 120.384 108.832 120.402C108.802 120.419 108.773 120.438 108.744 120.457C108.716 120.476 108.687 120.496 108.66 120.516C108.632 120.537 108.605 120.558 108.578 120.58C108.551 120.602 108.525 120.624 108.499 120.647C108.474 120.671 108.449 120.694 108.424 120.719C108.4 120.743 108.376 120.768 108.353 120.794C108.33 120.819 108.307 120.845 108.285 120.872C108.263 120.898 108.242 120.926 108.222 120.953C108.201 120.981 108.181 121.009 108.162 121.038C108.143 121.066 108.124 121.095 108.107 121.125C108.089 121.155 108.072 121.185 108.056 121.215C108.039 121.245 108.024 121.276 108.009 121.307C107.994 121.338 107.98 121.37 107.967 121.402C107.954 121.433 107.941 121.466 107.93 121.498C107.918 121.531 107.907 121.563 107.897 121.596C107.887 121.629 107.878 121.662 107.87 121.696C107.861 121.729 107.854 121.763 107.847 121.797C107.84 121.83 107.834 121.864 107.829 121.898C107.824 121.932 107.82 121.967 107.816 122.001C107.813 122.035 107.811 122.07 107.809 122.104C107.807 122.138 107.806 122.173 107.806 122.207L107.806 136.943C107.806 136.978 107.807 137.012 107.809 137.047C107.811 137.081 107.813 137.115 107.816 137.15C107.82 137.184 107.824 137.218 107.829 137.252C107.834 137.286 107.84 137.32 107.847 137.354C107.854 137.388 107.861 137.421 107.87 137.455C107.878 137.488 107.887 137.521 107.897 137.554C107.907 137.587 107.918 137.62 107.93 137.652C107.941 137.685 107.954 137.717 107.967 137.749C107.98 137.781 107.994 137.812 108.009 137.843C108.024 137.874 108.039 137.905 108.056 137.936C108.072 137.966 108.089 137.996 108.107 138.026C108.124 138.055 108.143 138.084 108.162 138.113C108.181 138.142 108.201 138.17 108.222 138.197C108.242 138.225 108.263 138.252 108.285 138.279C108.307 138.305 108.33 138.332 108.353 138.357C108.376 138.383 108.4 138.408 108.424 138.432C108.449 138.456 108.474 138.48 108.499 138.503C108.525 138.526 108.551 138.549 108.578 138.571C108.605 138.592 108.632 138.614 108.66 138.634C108.687 138.655 108.716 138.675 108.744 138.694C108.773 138.713 108.802 138.731 108.832 138.749C108.861 138.767 108.891 138.784 108.922 138.8C108.952 138.816 108.983 138.832 109.014 138.846C109.046 138.861 109.077 138.875 109.109 138.888C109.141 138.901 109.173 138.914 109.206 138.925C109.238 138.937 109.271 138.948 109.304 138.958C109.337 138.968 109.37 138.977 109.404 138.985C109.437 138.994 109.471 139.001 109.505 139.008C109.539 139.015 109.573 139.021 109.607 139.026C109.641 139.031 109.676 139.035 109.71 139.038C109.744 139.042 109.779 139.044 109.813 139.046C109.848 139.048 109.882 139.048 109.917 139.048L135.242 139.048C135.276 139.048 135.311 139.048 135.345 139.046C135.38 139.044 135.414 139.042 135.449 139.038C135.483 139.035 135.517 139.031 135.552 139.026C135.586 139.021 135.62 139.015 135.654 139.008C135.688 139.001 135.721 138.994 135.755 138.985C135.788 138.977 135.822 138.968 135.855 138.958C135.888 138.948 135.92 138.937 135.953 138.925C135.985 138.914 136.018 138.901 136.05 138.888C136.081 138.875 136.113 138.861 136.144 138.846C136.176 138.832 136.206 138.816 136.237 138.8C136.267 138.784 136.297 138.767 136.327 138.749C136.357 138.731 136.386 138.713 136.414 138.694C136.443 138.675 136.471 138.655 136.499 138.634C136.527 138.614 136.554 138.592 136.581 138.571C136.607 138.549 136.634 138.526 136.659 138.503C136.685 138.48 136.71 138.456 136.734 138.432C136.759 138.408 136.782 138.383 136.806 138.357C136.829 138.332 136.851 138.305 136.873 138.279C136.895 138.252 136.916 138.225 136.937 138.197C136.958 138.17 136.978 138.142 136.997 138.113C137.016 138.084 137.034 138.055 137.052 138.026C137.07 137.996 137.087 137.966 137.103 137.936C137.119 137.905 137.135 137.874 137.15 137.843C137.165 137.812 137.179 137.781 137.192 137.749C137.205 137.717 137.217 137.685 137.229 137.652C137.241 137.62 137.251 137.587 137.261 137.554C137.271 137.521 137.281 137.488 137.289 137.455C137.298 137.421 137.305 137.388 137.312 137.354C137.319 137.32 137.324 137.286 137.33 137.252C137.335 137.218 137.339 137.184 137.342 137.15C137.346 137.115 137.348 137.081 137.35 137.047C137.352 137.012 137.352 136.978 137.352 136.943L137.352 117.997C137.352 117.963 137.353 117.928 137.355 117.894C137.357 117.859 137.359 117.825 137.363 117.791C137.366 117.756 137.37 117.722 137.375 117.688C137.38 117.654 137.386 117.62 137.393 117.586C137.4 117.553 137.407 117.519 137.416 117.485C137.424 117.452 137.433 117.419 137.443 117.386C137.453 117.353 137.464 117.32 137.476 117.288C137.487 117.255 137.5 117.223 137.513 117.191C137.526 117.16 137.54 117.128 137.555 117.097C137.57 117.066 137.585 117.035 137.602 117.005C137.618 116.974 137.635 116.944 137.653 116.915C137.67 116.885 137.689 116.856 137.708 116.827C137.727 116.799 137.747 116.771 137.768 116.743C137.788 116.715 137.81 116.688 137.831 116.661C137.853 116.635 137.876 116.609 137.899 116.583C137.922 116.558 137.946 116.533 137.971 116.508C137.995 116.484 138.02 116.46 138.046 116.437C138.071 116.414 138.097 116.392 138.124 116.37C138.151 116.348 138.178 116.327 138.206 116.306C138.233 116.286 138.262 116.266 138.29 116.247C138.319 116.228 138.348 116.209 138.378 116.191C138.407 116.174 138.438 116.157 138.468 116.14C138.498 116.124 138.529 116.109 138.56 116.094C138.592 116.079 138.623 116.065 138.655 116.052C138.687 116.039 138.719 116.026 138.752 116.015C138.784 116.003 138.817 115.993 138.85 115.982C138.883 115.973 138.917 115.963 138.95 115.955C138.984 115.947 139.017 115.939 139.051 115.932C139.085 115.926 139.119 115.92 139.153 115.915C139.187 115.91 139.222 115.905 139.256 115.902C139.29 115.899 139.325 115.896 139.359 115.894C139.394 115.893 139.428 115.892 139.463 115.892C139.497 115.892 139.532 115.893 139.566 115.894C139.601 115.896 139.635 115.899 139.67 115.902C139.704 115.905 139.738 115.91 139.772 115.915C139.807 115.92 139.841 115.926 139.875 115.932C139.908 115.939 139.942 115.947 139.976 115.955C140.009 115.963 140.042 115.973 140.075 115.982C140.108 115.993 140.141 116.003 140.174 116.015C140.206 116.026 140.239 116.039 140.27 116.052C140.302 116.065 140.334 116.079 140.365 116.094C140.396 116.109 140.427 116.124 140.458 116.14C140.488 116.157 140.518 116.174 140.548 116.191C140.577 116.209 140.607 116.228 140.635 116.247C140.664 116.266 140.692 116.286 140.72 116.306C140.748 116.327 140.775 116.348 140.802 116.37C140.828 116.392 140.854 116.414 140.88 116.437C140.906 116.46 140.931 116.484 140.955 116.508C140.98 116.533 141.003 116.558 141.027 116.583C141.05 116.609 141.072 116.635 141.094 116.661C141.116 116.688 141.137 116.715 141.158 116.743C141.178 116.771 141.198 116.799 141.218 116.827C141.237 116.856 141.255 116.885 141.273 116.915C141.291 116.944 141.308 116.974 141.324 117.005C141.34 117.035 141.356 117.066 141.371 117.097C141.385 117.128 141.399 117.16 141.413 117.191C141.426 117.223 141.438 117.255 141.45 117.288C141.462 117.32 141.472 117.353 141.482 117.386C141.492 117.419 141.502 117.452 141.51 117.485C141.518 117.519 141.526 117.553 141.533 117.586C141.539 117.62 141.545 117.654 141.55 117.688C141.555 117.722 141.56 117.756 141.563 117.791C141.566 117.825 141.569 117.859 141.571 117.894C141.572 117.928 141.573 117.963 141.573 117.997L141.573 136.943C141.573 137.047 141.571 137.15 141.566 137.253C141.561 137.356 141.553 137.459 141.543 137.562C141.533 137.665 141.52 137.768 141.505 137.87C141.49 137.972 141.472 138.074 141.452 138.175C141.431 138.277 141.409 138.378 141.384 138.478C141.358 138.578 141.331 138.678 141.301 138.777C141.271 138.875 141.238 138.974 141.203 139.071C141.168 139.168 141.131 139.265 141.091 139.36C141.052 139.456 141.01 139.55 140.965 139.643C140.921 139.737 140.874 139.829 140.826 139.92C140.777 140.012 140.726 140.101 140.672 140.19C140.619 140.279 140.564 140.366 140.506 140.452C140.449 140.538 140.389 140.622 140.327 140.705C140.266 140.788 140.202 140.87 140.136 140.95C140.07 141.03 140.003 141.108 139.933 141.184C139.864 141.261 139.792 141.336 139.719 141.409C139.646 141.482 139.571 141.553 139.494 141.623C139.417 141.692 139.339 141.76 139.258 141.825C139.178 141.891 139.097 141.954 139.013 142.016C138.93 142.077 138.846 142.137 138.759 142.194C138.673 142.252 138.586 142.307 138.497 142.36C138.408 142.413 138.318 142.464 138.227 142.513C138.135 142.562 138.043 142.608 137.949 142.652C137.855 142.696 137.761 142.738 137.665 142.778C137.569 142.817 137.472 142.855 137.375 142.89C137.277 142.925 137.179 142.957 137.08 142.987C136.981 143.017 136.881 143.044 136.78 143.069C136.68 143.095 136.579 143.117 136.477 143.137C136.375 143.158 136.273 143.175 136.171 143.19C136.068 143.206 135.966 143.218 135.863 143.229C135.759 143.238 135.656 143.246 135.553 143.251C135.449 143.256 135.346 143.259 135.242 143.259Z"   fill="#FFBD45" >
</path>
<g >
<path     fill="#000000"  d="M250.6 83Q248.2 76.1 245.5 67.4Q242.8 58.7 240.4 50.05Q238 41.4 236.1 33.7Q234.2 26 233.3 21.1L246.3 21.1Q246.9 25.9 248.1 32.25Q249.3 38.6 250.75 45.35Q252.2 52.1 253.85 58.65Q255.5 65.2 257.1 70.4Q258.7 65.3 260.3 58.75Q261.9 52.2 263.3 45.45Q264.7 38.7 265.9 32.3Q267.1 25.9 267.9 21.1L280.8 21.1Q279.6 27.1 277.85 34.5Q276.1 41.9 273.85 50.05Q271.6 58.2 268.9 66.65Q266.2 75.1 263.3 83L250.6 83ZM285.1 59.9Q285.1 53.7 287 49Q288.9 44.3 292 41.15Q295.1 38 299.1 36.4Q303.1 34.8 307.3 34.8Q317.7 34.8 323.1 40.95Q328.5 47.1 328.5 58.9Q328.5 60.1 328.45 61.4Q328.4 62.7 328.3 63.5L297.8 63.5Q297.8 68.1 301.6 70.75Q305.4 73.4 311.4 73.4Q315.1 73.4 318.45 72.6Q321.8 71.8 324.1 71L325.8 81.5Q322.6 82.6 319 83.35Q315.4 84.1 310.9 84.1Q304.9 84.1 300.15 82.55Q295.4 81 292.05 77.95Q288.7 74.9 286.9 70.4Q285.1 65.9 285.1 59.9ZM316.6 55Q316.6 53.1 316.1 51.35Q315.6 49.6 314.5 48.2Q313.4 46.8 311.7 45.95Q310 45.1 307.5 45.1Q305.1 45.1 303.35 45.9Q301.6 46.7 300.45 48.1Q299.3 49.5 298.65 51.3Q298 53.1 297.8 55L316.6 55ZM378.7 81Q378.4 81.2 377.35 81.7Q376.3 82.2 374.6 82.75Q372.9 83.3 370.45 83.7Q368 84.1 364.9 84.1Q356.4 84.1 352.5 79.05Q348.6 74 348.6 64.3L348.6 24.4L335.6 24.4L335.6 14.2L360.9 14.2L360.9 65.2Q360.9 70 362.8 71.7Q364.7 73.4 367.6 73.4Q371.3 73.4 373.8 72.4Q376.3 71.4 377.1 71.1L378.7 81ZM407.1 74.2Q409.1 74.2 411 74.15Q412.9 74.1 414.3 73.9L414.3 63.1Q413.1 62.9 411.4 62.75Q409.7 62.6 408.3 62.6Q406.4 62.6 404.6 62.85Q402.8 63.1 401.45 63.7Q400.1 64.3 399.3 65.4Q398.5 66.5 398.5 68.3Q398.5 71.5 400.9 72.85Q403.3 74.2 407.1 74.2ZM406 34.8Q411.8 34.8 415.65 36.15Q419.5 37.5 421.8 39.95Q424.1 42.4 425.1 45.95Q426.1 49.5 426.1 53.9L426.1 81.9Q423.4 82.5 418.1 83.3Q412.8 84.1 406.2 84.1Q401.7 84.1 398.05 83.3Q394.4 82.5 391.8 80.65Q389.2 78.8 387.8 75.85Q386.4 72.9 386.4 68.6Q386.4 64.5 388 61.7Q389.6 58.9 392.3 57.2Q395 55.5 398.5 54.75Q402 54 405.8 54Q410.6 54 414.3 54.8L414.3 53.3Q414.3 49.8 412.1 47.45Q409.9 45.1 404.5 45.1Q401 45.1 397.75 45.6Q394.5 46.1 392.5 46.8L390.8 36.9Q393.1 36.1 397.3 35.45Q401.5 34.8 406 34.8ZM275.356 183Q272.956 176.1 270.256 167.4Q267.556 158.7 265.156 150.05Q262.756 141.4 260.856 133.7Q258.956 126 258.056 121.1L271.056 121.1Q271.656 125.9 272.856 132.25Q274.056 138.6 275.506 145.35Q276.956 152.1 278.606 158.65Q280.256 165.2 281.856 170.4Q283.456 165.3 285.056 158.75Q286.656 152.2 288.056 145.45Q289.456 138.7 290.656 132.3Q291.856 125.9 292.656 121.1L305.556 121.1Q304.356 127.1 302.606 134.5Q300.856 141.9 298.606 150.05Q296.356 158.2 293.656 166.65Q290.956 175.1 288.056 183L275.356 183ZM309.856 159.9Q309.856 153.7 311.756 149Q313.656 144.3 316.756 141.15Q319.856 138 323.856 136.4Q327.856 134.8 332.056 134.8Q342.456 134.8 347.856 140.95Q353.256 147.1 353.256 158.9Q353.256 160.1 353.206 161.4Q353.156 162.7 353.056 163.5L322.556 163.5Q322.556 168.1 326.356 170.75Q330.156 173.4 336.156 173.4Q339.856 173.4 343.206 172.6Q346.556 171.8 348.856 171L350.556 181.5Q347.356 182.6 343.756 183.35Q340.156 184.1 335.656 184.1Q329.656 184.1 324.906 182.55Q320.156 181 316.806 177.95Q313.456 174.9 311.656 170.4Q309.856 165.9 309.856 159.9ZM341.356 155Q341.356 153.1 340.856 151.35Q340.356 149.6 339.256 148.2Q338.156 146.8 336.456 145.95Q334.756 145.1 332.256 145.1Q329.856 145.1 328.106 145.9Q326.356 146.7 325.206 148.1Q324.056 149.5 323.406 151.3Q322.756 153.1 322.556 155L341.356 155ZM400.456 148.5Q399.256 148.2 397.606 147.9Q395.956 147.6 394.256 147.35Q392.556 147.1 390.956 147Q389.356 146.9 388.256 146.9Q385.656 146.9 383.156 147.15Q380.656 147.4 378.056 148.1L378.056 183L365.656 183L365.656 139.1Q370.556 137.3 375.706 136.2Q380.856 135.1 387.756 135.1Q388.756 135.1 390.606 135.2Q392.456 135.3 394.556 135.55Q396.656 135.8 398.806 136.15Q400.956 136.5 402.656 137.1L400.456 148.5ZM435.156 122.5Q435.156 126.1 432.856 128.2Q430.556 130.3 427.356 130.3Q424.156 130.3 421.906 128.2Q419.656 126.1 419.656 122.5Q419.656 118.8 421.906 116.7Q424.156 114.6 427.356 114.6Q430.556 114.6 432.856 116.7Q435.156 118.8 435.156 122.5ZM453.456 181Q449.656 182.8 446.306 183.45Q442.956 184.1 440.156 184.1Q435.356 184.1 432.106 182.7Q428.856 181.3 426.906 178.65Q424.956 176 424.156 172.2Q423.356 168.4 423.356 163.5L423.356 146.2L410.356 146.2L410.356 136L435.656 136L435.656 165.1Q435.656 169.3 437.206 171.35Q438.756 173.4 442.356 173.4Q444.056 173.4 446.456 172.95Q448.856 172.5 451.856 171.1L453.456 181ZM470.656 183L470.656 146.2L460.356 146.2L460.356 136L470.656 136L470.656 133.3Q470.656 127.6 472.306 123.85Q473.956 120.1 476.756 117.85Q479.556 115.6 483.156 114.65Q486.756 113.7 490.556 113.7Q494.456 113.7 498.556 114.4Q502.656 115.1 505.956 116.7L503.856 126.7Q501.556 125.9 498.106 125.05Q494.656 124.2 491.556 124.2Q489.856 124.2 488.306 124.5Q486.756 124.8 485.606 125.8Q484.456 126.8 483.756 128.65Q483.056 130.5 483.056 133.5L483.056 136L502.356 136L502.356 146.2L483.056 146.2L483.056 183L470.656 183ZM553.956 136Q552.056 142.6 550.306 148.95Q548.556 155.3 546.656 161.35Q544.756 167.4 542.606 173.2Q540.456 179 537.956 184.5Q536.056 188.5 534.206 191.4Q532.356 194.3 530.106 196.15Q527.856 198 525.106 198.9Q522.356 199.8 518.656 199.8Q515.556 199.8 513.006 199.3Q510.456 198.8 508.756 198L511.056 187.7Q513.056 188.6 514.606 188.95Q516.156 189.3 517.956 189.3Q521.556 189.3 523.756 186.9Q525.956 184.5 527.256 181.2Q522.856 172.4 518.456 161.05Q514.056 149.7 510.456 136L523.256 136Q524.156 139.7 525.306 143.9Q526.456 148.1 527.756 152.3Q529.056 156.5 530.506 160.55Q531.956 164.6 533.456 168.1Q534.456 164.6 535.556 160.55Q536.656 156.5 537.656 152.35Q538.656 148.2 539.606 144Q540.556 139.8 541.356 136L553.956 136Z">
</path>
</g>
<defs>
<pattern id="pattern_fill_2_1_0" patternContentUnits="objectBoundingBox" width="0.0017301038062283738" height="0.0045045045045045045">
<use transform="scale(0.0017301038062283738, 0.0045045045045045045)" xlink:href="#image2ti1Zc4j2U8H3ub-uuDPa" />
</pattern>

<image id="image2ti1Zc4j2U8H3ub-uuDPa" width="1" height="1"  />

<clipPath id="clip-path-2_2">
<path d="M0 198L202 198L202 0L0 0L0 198Z" fill="white"/>
</clipPath>
</defs>
</svg>
