<svg xmlns="http://www.w3.org/2000/svg" xmlns:xlink="http://www.w3.org/1999/xlink" width="560" height="222" fill="none"><path fill="url(#a)" d="M0 222h560V0H0z"/><g clip-path="url(#b)"><path fill="#4286F5" d="M88.951-.354h19.141q60.277 8.334 83.988 64.35c4.582 12.579 6.466 25.548 5.664 38.897-4.219 15.254-14.259 21.964-30.122 20.147q-14.62-3.624-18.784-18.028.885-36.274-31.537-51.975-32.668-11.16-56.342 13.79c-15.594 21.215-15.594 42.424 0 63.638 11.744 12.476 26.273 18.492 43.588 18.038q25.63 9.608 16.655 35.709-5.821 10.599-17.368 13.434h-14.17c-33.348-4.199-58.988-20.468-76.908-48.797Q2.66 130.821-.354 110.665V86.628C6.859 43.95 31.196 16.01 72.653 2.824A307 307 0 0 1 88.95-.354" opacity=".982"/><path fill="#F6473E" d="M179.693 129.923c-1.191-.037-2.399.079-3.538.279-1.065.208-2.151.64-3.097 1.168-1.494.785-2.848 1.739-4.149 2.851-1.863 1.523-3.675 3.284-5.405 4.974-2.402 2.476-4.731 4.963-7.134 7.439-2.239 2.337-4.544 4.511-6.917 6.681-2.454 2.24-4.99 4.551-7.452 6.867-1.804 1.684-3.541 3.445-5.071 5.386-1.012 1.218-1.892 2.604-2.63 4.08-.473 1.037-.879 2.157-1.063 3.299a17 17 0 0 0-.265 2.758c-.007 1.623.216 3.188 1.045 4.659a6.2 6.2 0 0 0 3.047 2.533c.577.209 1.153.423 1.819.486l1.185.114.814.001a17.5 17.5 0 0 0 3.401-.453c2.064-.499 4.071-1.151 6.023-2.047 2.654-1.215 5.176-2.598 7.571-4.225 2.314-1.557 4.565-3.196 6.68-5.004 3.408-2.844 6.691-6.013 9.625-9.366l.173-.212c2.765-3.137 5.265-6.611 7.482-10.265a46 46 0 0 0 3.625-7.461c.414-1.197.834-2.473 1.1-3.684.03-.307.135-.608.171-.991l.155-1.609c.029-.306-.017-.622.02-1.005-.067-1.63-.368-3.12-1.286-4.445a5.76 5.76 0 0 0-2.773-2.202c-1.007-.406-2.039-.577-3.156-.606"/></g><path fill="#FFBD45" d="M135.242 143.259h-25.325a6.5 6.5 0 0 1-1.838-.272 6 6 0 0 1-.869-.335 6 6 0 0 1-.811-.458 6.4 6.4 0 0 1-.734-.571 6.5 6.5 0 0 1-.834-.918 8 8 0 0 1-.179-.253 6.474 6.474 0 0 1-.794-1.675 6.3 6.3 0 0 1-.273-1.834v-14.736a6.5 6.5 0 0 1 .19-1.534 6 6 0 0 1 .181-.593 6 6 0 0 1 .53-1.12q.08-.132.166-.261a6.43 6.43 0 0 1 2.28-2.061 6 6 0 0 1 .852-.377 6 6 0 0 1 .594-.18 6.4 6.4 0 0 1 1.539-.189H126.8a2 2 0 0 0 .207-.01l.103-.013a2 2 0 0 0 .203-.04 3 3 0 0 0 .198-.06l.097-.037.095-.042a3 3 0 0 0 .182-.098q.045-.026.088-.055a3 3 0 0 0 .166-.123q.04-.032.078-.068a1.7 1.7 0 0 0 .215-.224 2 2 0 0 0 .123-.166 2 2 0 0 0 .106-.177 2 2 0 0 0 .089-.187 2 2 0 0 0 .07-.194q.015-.05.027-.1t.023-.101a2 2 0 0 0 .03-.204q.006-.052.008-.103l.003-.103v-3.853a8 8 0 0 0-.013-.599 6 6 0 0 0-.121-.891 6 6 0 0 0-.148-.581 6.717 6.717 0 0 0-.32-.841 7 7 0 0 0-.276-.532 7 7 0 0 0-.502-.747 7 7 0 0 0-.6-.671 7 7 0 0 0-.687-.582 6.069 6.069 0 0 0-.759-.484 6.7 6.7 0 0 0-1.102-.477 7 7 0 0 0-.874-.221 6 6 0 0 0-.297-.047 6 6 0 0 0-.662-.032 6 6 0 0 0-.661.038 6 6 0 0 0-.655.106 7 7 0 0 0-.639.175 6 6 0 0 0-.618.239 8 8 0 0 0-.299.144 5.776 5.776 0 0 0-.572.334 6.3 6.3 0 0 0-1.667 1.592 6 6 0 0 0-.515.848 6 6 0 0 0-.267.605 7 7 0 0 0-.201.63 6 6 0 0 0-.135.648 6 6 0 0 0-.073.988q0 .052-.003.104-.002.05-.007.103l-.013.102-.017.102-.023.101-.028.099-.032.099q-.017.048-.038.096l-.042.094q-.021.047-.046.093a2 2 0 0 1-.444.567 3 3 0 0 1-.16.131l-.085.06-.087.055a2 2 0 0 1-.183.097 2 2 0 0 1-.191.079 2 2 0 0 1-.199.06q-.05.013-.101.023a2 2 0 0 1-.308.038 2 2 0 0 1-.207 0q-.052-.002-.103-.008a1.7 1.7 0 0 1-.306-.053 2 2 0 0 1-.198-.06 1.966 1.966 0 0 1-.374-.176 3 3 0 0 1-.173-.115 2 2 0 0 1-.16-.131l-.075-.071a2 2 0 0 1-.139-.153l-.063-.082a1 1 0 0 1-.06-.084l-.056-.087-.051-.09a3 3 0 0 1-.125-.283l-.033-.099-.028-.099q-.012-.05-.022-.101a2 2 0 0 1-.031-.204q-.005-.052-.007-.103l-.003-.104a10 10 0 0 1 .053-1.099 10 10 0 0 1 .167-1.088 10 10 0 0 1 .28-1.064 10.3 10.3 0 0 1 .886-2.013 10 10 0 0 1 .929-1.365 11 11 0 0 1 .734-.822 10 10 0 0 1 .398-.381q.204-.186.418-.36a11 11 0 0 1 .888-.652q.232-.151.469-.291a10.8 10.8 0 0 1 2.536-1.065 10.7 10.7 0 0 1 2.175-.358 10.5 10.5 0 0 1 1.653.033 10.84 10.84 0 0 1 7.169 4.001 11 11 0 0 1 .58.801 10.8 10.8 0 0 1 1.27 2.672 10 10 0 0 1 .254.955 10 10 0 0 1 .166.974 10 10 0 0 1 .076.986q.007.247.004.494v3.853a6.5 6.5 0 0 1-.19 1.534 6.31 6.31 0 0 1-4.304 4.509 6.3 6.3 0 0 1-1.838.272h-16.883a2 2 0 0 0-.207.01l-.103.013a2 2 0 0 0-.203.04 3 3 0 0 0-.198.06l-.097.037-.095.042q-.047.022-.092.047a1 1 0 0 0-.09.051q-.045.026-.088.055a3 3 0 0 0-.245.19l-.075.072a2 2 0 0 0-.139.153 2 2 0 0 0-.123.166 2.05 2.05 0 0 0-.265.558q-.015.05-.027.1t-.023.101l-.018.101-.013.103-.007.103-.003.103v14.736q0 .052.003.104l.007.103a4 4 0 0 0 .031.204 2 2 0 0 0 .05.2q.015.05.033.098a2 2 0 0 0 .079.191 2 2 0 0 0 .213.354 2 2 0 0 0 .131.16 2 2 0 0 0 .146.146l.079.068q.04.032.082.063a2 2 0 0 0 .172.115q.043.027.09.051a2 2 0 0 0 .187.088q.048.02.097.037a2 2 0 0 0 .198.06q.05.013.101.023a2 2 0 0 0 .205.03q.052.005.103.008.052.002.104.002h25.325q.052 0 .103-.002a2 2 0 0 0 .207-.02 2 2 0 0 0 .203-.041 2 2 0 0 0 .389-.139q.047-.022.093-.046a2 2 0 0 0 .262-.166q.042-.03.082-.063a3 3 0 0 0 .153-.139q.037-.036.072-.075.034-.038.067-.078a3 3 0 0 0 .124-.166l.055-.087.051-.09.047-.093a2 2 0 0 0 .079-.191q.018-.048.032-.098.016-.05.028-.099.013-.05.023-.101l.018-.102a2 2 0 0 0 .02-.205q.003-.052.002-.104v-18.946a2 2 0 0 1 .011-.206 2 2 0 0 1 .03-.205q.01-.05.023-.101a2 2 0 0 1 .06-.197q.017-.05.037-.097a2 2 0 0 1 .14-.276 2 2 0 0 1 .115-.172q.03-.042.063-.082l.068-.078a3 3 0 0 1 .225-.213 3 3 0 0 1 .166-.123l.088-.056.09-.051.092-.046q.048-.023.095-.042.048-.02.097-.037.048-.017.098-.033l.1-.027.101-.023.102-.017a2 2 0 0 1 .206-.021l.104-.002.103.002.104.008a2 2 0 0 1 .205.03l.101.023.099.027.099.033a2 2 0 0 1 .191.079l.093.046.09.051a2.6 2.6 0 0 1 .332.246q.039.035.075.071l.072.075.067.078.064.082.06.084a3 3 0 0 1 .153.27l.042.094a3 3 0 0 1 .069.195q.016.05.028.099l.023.101.017.102a2 2 0 0 1 .021.206l.002.103v18.946a6.4 6.4 0 0 1-.068.927 6.3 6.3 0 0 1-.999 2.582q-.086.129-.179.253a6 6 0 0 1-.394.479 6 6 0 0 1-.439.439 6 6 0 0 1-.236.202 6 6 0 0 1-.499.369 6 6 0 0 1-.532.319 6 6 0 0 1-.562.265 6.35 6.35 0 0 1-2.423.481"/><path fill="#000" d="M250.6 83q-2.4-6.9-5.1-15.6t-5.1-17.35-4.3-16.35-2.8-12.6h13q.6 4.8 1.8 11.15t2.65 13.1 3.1 13.3 3.25 11.75q1.6-5.1 3.2-11.65t3-13.3 2.6-13.15 2-11.2h12.9q-1.2 6-2.95 13.4t-4 15.55-4.95 16.6T263.3 83zm34.5-23.1q0-6.2 1.9-10.9t5-7.85 7.1-4.75 8.2-1.6q10.4 0 15.8 6.15t5.4 17.95q0 1.2-.05 2.5t-.15 2.1h-30.5q0 4.6 3.8 7.25t9.8 2.65q3.7 0 7.05-.8t5.65-1.6l1.7 10.5q-3.2 1.1-6.8 1.85t-8.1.75q-6 0-10.75-1.55t-8.1-4.6-5.15-7.55-1.8-10.5m31.5-4.9q0-1.9-.5-3.65t-1.6-3.15-2.8-2.25-4.2-.85q-2.4 0-4.15.8t-2.9 2.2-1.8 3.2-.85 3.7zm62.1 26q-.3.2-1.35.7t-2.75 1.05-4.15.95-5.55.4q-8.5 0-12.4-5.05t-3.9-14.75V24.4h-13V14.2h25.3v51q0 4.8 1.9 6.5t4.8 1.7q3.7 0 6.2-1t3.3-1.3zm28.4-6.8q2 0 3.9-.05t3.3-.25V63.1q-1.2-.2-2.9-.35t-3.1-.15q-1.9 0-3.7.25t-3.15.85-2.15 1.7-.8 2.9q0 3.2 2.4 4.55t6.2 1.35M406 34.8q5.8 0 9.65 1.35t6.15 3.8 3.3 6 1 7.95v28q-2.7.6-8 1.4t-11.9.8q-4.5 0-8.15-.8t-6.25-2.65-4-4.8-1.4-7.25q0-4.1 1.6-6.9t4.3-4.5 6.2-2.45 7.3-.75q4.8 0 8.5.8v-1.5q0-3.5-2.2-5.85t-7.6-2.35q-3.5 0-6.75.5t-5.25 1.2l-1.7-9.9q2.3-.8 6.5-1.45t8.7-.65M275.356 183q-2.4-6.9-5.1-15.6t-5.1-17.35-4.3-16.35-2.8-12.6h13q.6 4.8 1.8 11.15t2.65 13.1 3.1 13.3 3.25 11.75q1.6-5.1 3.2-11.65t3-13.3 2.6-13.15 2-11.2h12.9q-1.2 6-2.95 13.4t-4 15.55-4.95 16.6-5.6 16.35zm34.5-23.1q0-6.2 1.9-10.9t5-7.85 7.1-4.75 8.2-1.6q10.4 0 15.8 6.15t5.4 17.95q0 1.2-.05 2.5t-.15 2.1h-30.5q0 4.6 3.8 7.25t9.8 2.65q3.7 0 7.05-.8t5.65-1.6l1.7 10.5q-3.2 1.1-6.8 1.85t-8.1.75q-6 0-10.75-1.55t-8.1-4.6-5.15-7.55-1.8-10.5m31.5-4.9q0-1.9-.5-3.65t-1.6-3.15-2.8-2.25-4.2-.85q-2.4 0-4.15.8t-2.9 2.2-1.8 3.2-.85 3.7zm59.1-6.5q-1.2-.3-2.85-.6t-3.35-.55-3.3-.35-2.7-.1q-2.6 0-5.1.25t-5.1.95V183h-12.4v-43.9q4.9-1.8 10.05-2.9t12.05-1.1q1 0 2.85.1t3.95.35 4.25.6 3.85.95zm34.7-26q0 3.6-2.3 5.7t-5.5 2.1-5.45-2.1-2.25-5.7q0-3.7 2.25-5.8t5.45-2.1 5.5 2.1 2.3 5.8m18.3 58.5q-3.8 1.8-7.15 2.45t-6.15.65q-4.8 0-8.05-1.4t-5.2-4.05-2.75-6.45-.8-8.7v-17.3h-13V136h25.3v29.1q0 4.2 1.55 6.25t5.15 2.05q1.7 0 4.1-.45t5.4-1.85zm17.2 2v-36.8h-10.3V136h10.3v-2.7q0-5.7 1.65-9.45t4.45-6 6.4-3.2 7.4-.95q3.9 0 8 .7t7.4 2.3l-2.1 10q-2.3-.8-5.75-1.65t-6.55-.85q-1.7 0-3.25.3t-2.7 1.3-1.85 2.85-.7 4.85v2.5h19.3v10.2h-19.3V183zm83.3-47q-1.9 6.6-3.65 12.95t-3.65 12.4-4.05 11.85-4.65 11.3q-1.9 4-3.75 6.9t-4.1 4.75-5 2.75-6.45.9q-3.1 0-5.65-.5t-4.25-1.3l2.3-10.3q2 .9 3.55 1.25t3.35.35q3.6 0 5.8-2.4t3.5-5.7q-4.4-8.8-8.8-20.15t-8-25.05h12.8q.9 3.7 2.05 7.9t2.45 8.4 2.75 8.25 2.95 7.55q1-3.5 2.1-7.55t2.1-8.2 1.95-8.35 1.75-8z"/><defs><clipPath id="b"><path fill="#fff" d="M0 198h202V0H0z"/></clipPath><pattern id="a" width=".002" height=".005" patternContentUnits="objectBoundingBox"><use xlink:href="#c" transform="scale(.00179 .0045)"/></pattern><image id="c" width="1" height="1"/></defs></svg>